<svg width="141" height="36" viewBox="0 0 141 36" fill="none" xmlns="http://www.w3.org/2000/svg">
<rect width="141" height="36" rx="4" fill="#7859CF"/>
<path fill-rule="evenodd" clip-rule="evenodd" d="M33.6738 23.5219L33.6769 23.5H35.0238L34.9937 23.7105C34.8061 25.0242 33.6809 26 32.3539 26H23.6461C22.3191 26 21.1939 25.0242 21.0063 23.7105L20.1905 18L20 16.6667H21.3469H24.5556L24.3322 13.9862C24.1534 11.8404 25.8467 10 28 10C29.8138 10 31.3012 11.3058 31.6183 13H30.2473C29.957 12.042 29.067 11.3333 28 11.3333C26.6268 11.3333 25.5469 12.507 25.6609 13.8755L25.8935 16.6667H29.5V18H26.0579L26.2801 20.6667H29.7199L29.7338 20.5H31.0718L31.0579 20.6667H32.5V22H30.9468L30.7245 24.6667H32.3539C33.0174 24.6667 33.58 24.1788 33.6738 23.5219ZM24.7199 18H24.6667H21.5373L21.9183 20.6667H24.9421L24.7199 18ZM26.6134 24.6667L26.3912 22H29.6088L29.3866 24.6667H26.6134ZM25.0532 22L25.2755 24.6667H23.6461C22.9826 24.6667 22.42 24.1788 22.3262 23.5219L22.1088 22H25.0532ZM35.8 20V17.2H33V15.8H35.8V13H37.2V15.8H40V17.2H37.2V20H35.8Z" fill="white"/>
<path d="M47.652 23V13.2H51.726C52.762 13.2 53.574 13.4147 54.162 13.844C54.7593 14.264 55.058 14.8847 55.058 15.706C55.058 16.518 54.7733 17.134 54.204 17.554C53.6347 17.9647 52.888 18.17 51.964 18.17L52.202 17.82C53.294 17.82 54.1247 18.0347 54.694 18.464C55.2633 18.8933 55.548 19.5233 55.548 20.354C55.548 21.194 55.2493 21.8473 54.652 22.314C54.064 22.7713 53.1773 23 51.992 23H47.652ZM48.674 22.174H51.992C52.8227 22.174 53.4527 22.02 53.882 21.712C54.3113 21.404 54.526 20.928 54.526 20.284C54.526 19.6493 54.3113 19.1827 53.882 18.884C53.4527 18.5853 52.8227 18.436 51.992 18.436H48.674V22.174ZM48.674 17.638H51.67C52.426 17.638 53.0047 17.4887 53.406 17.19C53.8167 16.882 54.022 16.4293 54.022 15.832C54.022 15.2347 53.8167 14.7867 53.406 14.488C53.0047 14.18 52.426 14.026 51.67 14.026H48.674V17.638ZM66.9544 23L63.9304 19.36L64.7564 18.87L68.1304 23H66.9544ZM61.5644 23V15.65H62.5584V23H61.5644ZM62.2504 19.724V18.87H64.6164V19.724H62.2504ZM64.8404 19.43L63.9164 19.29L66.8424 15.65H67.9204L64.8404 19.43ZM72.4634 23.07C71.7541 23.07 71.1147 22.9113 70.5454 22.594C69.9854 22.2673 69.5421 21.824 69.2154 21.264C68.8887 20.6947 68.7254 20.046 68.7254 19.318C68.7254 18.5807 68.8887 17.932 69.2154 17.372C69.5421 16.812 69.9854 16.3733 70.5454 16.056C71.1054 15.7387 71.7447 15.58 72.4634 15.58C73.1914 15.58 73.8354 15.7387 74.3954 16.056C74.9647 16.3733 75.4081 16.812 75.7254 17.372C76.0521 17.932 76.2154 18.5807 76.2154 19.318C76.2154 20.046 76.0521 20.6947 75.7254 21.264C75.4081 21.824 74.9647 22.2673 74.3954 22.594C73.8261 22.9113 73.1821 23.07 72.4634 23.07ZM72.4634 22.188C72.9954 22.188 73.4667 22.0713 73.8774 21.838C74.2881 21.5953 74.6101 21.2593 74.8434 20.83C75.0861 20.3913 75.2074 19.8873 75.2074 19.318C75.2074 18.7393 75.0861 18.2353 74.8434 17.806C74.6101 17.3767 74.2881 17.0453 73.8774 16.812C73.4667 16.5693 73.0001 16.448 72.4774 16.448C71.9547 16.448 71.4881 16.5693 71.0774 16.812C70.6667 17.0453 70.3401 17.3767 70.0974 17.806C69.8547 18.2353 69.7334 18.7393 69.7334 19.318C69.7334 19.8873 69.8547 20.3913 70.0974 20.83C70.3401 21.2593 70.6667 21.5953 71.0774 21.838C71.4881 22.0713 71.9501 22.188 72.4634 22.188ZM82.1338 23.07C81.4991 23.07 80.9251 22.9253 80.4118 22.636C79.8984 22.3373 79.4878 21.9127 79.1798 21.362C78.8811 20.802 78.7318 20.1207 78.7318 19.318C78.7318 18.5153 78.8811 17.8387 79.1798 17.288C79.4784 16.728 79.8844 16.3033 80.3978 16.014C80.9111 15.7247 81.4898 15.58 82.1338 15.58C82.8338 15.58 83.4591 15.7387 84.0098 16.056C84.5698 16.364 85.0084 16.8027 85.3258 17.372C85.6431 17.932 85.8018 18.5807 85.8018 19.318C85.8018 20.0647 85.6431 20.718 85.3258 21.278C85.0084 21.838 84.5698 22.2767 84.0098 22.594C83.4591 22.9113 82.8338 23.07 82.1338 23.07ZM78.3398 25.716V15.65H79.2918V17.862L79.1938 19.332L79.3338 20.816V25.716H78.3398ZM82.0638 22.188C82.5864 22.188 83.0531 22.0713 83.4638 21.838C83.8744 21.5953 84.2011 21.2593 84.4438 20.83C84.6864 20.3913 84.8078 19.8873 84.8078 19.318C84.8078 18.7487 84.6864 18.2493 84.4438 17.82C84.2011 17.3907 83.8744 17.0547 83.4638 16.812C83.0531 16.5693 82.5864 16.448 82.0638 16.448C81.5411 16.448 81.0698 16.5693 80.6498 16.812C80.2391 17.0547 79.9124 17.3907 79.6698 17.82C79.4364 18.2493 79.3198 18.7487 79.3198 19.318C79.3198 19.8873 79.4364 20.3913 79.6698 20.83C79.9124 21.2593 80.2391 21.5953 80.6498 21.838C81.0698 22.0713 81.5411 22.188 82.0638 22.188ZM89.8568 23.084C89.3248 23.084 88.7974 23.0093 88.2748 22.86C87.7521 22.7107 87.2901 22.482 86.8888 22.174L87.2108 21.432C87.5654 21.6933 87.9761 21.894 88.4428 22.034C88.9094 22.1647 89.3714 22.23 89.8288 22.23C90.2861 22.2207 90.6828 22.1553 91.0188 22.034C91.3548 21.9127 91.6161 21.7447 91.8028 21.53C91.9894 21.3153 92.0828 21.0727 92.0828 20.802C92.0828 20.41 91.9054 20.1067 91.5508 19.892C91.1961 19.668 90.7108 19.556 90.0948 19.556H88.8348V18.828H90.0248C90.3888 18.828 90.7108 18.7813 90.9908 18.688C91.2708 18.5947 91.4854 18.4593 91.6348 18.282C91.7934 18.1047 91.8728 17.8947 91.8728 17.652C91.8728 17.3907 91.7794 17.1667 91.5928 16.98C91.4154 16.7933 91.1681 16.6533 90.8508 16.56C90.5334 16.4667 90.1741 16.42 89.7728 16.42C89.4088 16.4293 89.0308 16.4853 88.6388 16.588C88.2468 16.6813 87.8594 16.826 87.4768 17.022L87.1968 16.252C87.6261 16.028 88.0508 15.86 88.4708 15.748C88.9001 15.6267 89.3294 15.566 89.7588 15.566C90.3468 15.5473 90.8741 15.6173 91.3408 15.776C91.8168 15.9347 92.1948 16.1633 92.4748 16.462C92.7548 16.7513 92.8948 17.1013 92.8948 17.512C92.8948 17.876 92.7828 18.1933 92.5588 18.464C92.3348 18.7347 92.0361 18.9447 91.6628 19.094C91.2894 19.2433 90.8648 19.318 90.3888 19.318L90.4308 19.052C91.2708 19.052 91.9241 19.2153 92.3908 19.542C92.8668 19.8687 93.1048 20.312 93.1048 20.872C93.1048 21.3107 92.9601 21.698 92.6708 22.034C92.3814 22.3607 91.9894 22.6173 91.4948 22.804C91.0094 22.9907 90.4634 23.084 89.8568 23.084ZM95.3613 23V15.65H96.3553V21.488L101.269 15.65H102.151V23H101.157V17.148L96.2573 23H95.3613ZM105 23V15.65H105.994V18.898H110.628V15.65H111.622V23H110.628V19.752H105.994V23H105ZM114.573 25.786C114.228 25.786 113.897 25.73 113.579 25.618C113.271 25.506 113.005 25.338 112.781 25.114L113.243 24.372C113.43 24.5493 113.631 24.6847 113.845 24.778C114.069 24.8807 114.317 24.932 114.587 24.932C114.914 24.932 115.194 24.8387 115.427 24.652C115.67 24.4747 115.899 24.1573 116.113 23.7L116.589 22.622L116.701 22.468L119.725 15.65H120.705L117.023 23.882C116.818 24.358 116.589 24.736 116.337 25.016C116.095 25.296 115.829 25.492 115.539 25.604C115.25 25.7253 114.928 25.786 114.573 25.786ZM116.533 23.21L113.145 15.65H114.181L117.177 22.398L116.533 23.21Z" fill="white"/>
</svg>
